M48
; DRILL file {KiCad 9.0.7} date 2026-05-31T11:16:00-0400
; FORMAT={-:-/ absolute / metric / decimal}
; #@! TF.CreationDate,2026-05-31T11:16:00-04:00
; #@! TF.GenerationSoftware,Kicad,Pcbnew,9.0.7
; #@! TF.FileFunction,MixedPlating,1,4
FMAT,2
METRIC
; #@! TA.AperFunction,Plated,PTH,ComponentDrill
T1C0.800
; #@! TA.AperFunction,Plated,PTH,ComponentDrill
T2C1.000
; #@! TA.AperFunction,Plated,PTH,ComponentDrill
T3C1.100
; #@! TA.AperFunction,NonPlated,NPTH,ComponentDrill
T4C2.540
; #@! TA.AperFunction,NonPlated,NPTH,ComponentDrill
T5C3.200
%
G90
G05
T1
X128.288Y-117.44
X128.288Y-127.6
X134.788Y-117.44
X134.788Y-127.6
X140.208Y-129.52
X150.368Y-129.52
X155.288Y-116.94
X155.288Y-127.1
X161.788Y-116.94
X161.788Y-127.1
X162.088Y-70.52
X162.088Y-73.06
X162.088Y-75.6
X162.088Y-78.14
X169.708Y-70.52
X169.708Y-73.06
X169.708Y-75.6
X169.708Y-78.14
T2
X125.788Y-96.52
X132.288Y-96.52
X141.458Y-61.77
X143.998Y-61.77
X146.538Y-61.77
X149.078Y-61.77
X158.248Y-91.52
X160.788Y-91.52
X163.328Y-91.52
X165.868Y-91.52
X168.408Y-91.52
T3
X131.288Y-107.02
X131.288Y-111.52
X137.788Y-107.02
X137.788Y-111.52
X142.038Y-96.52
X142.038Y-101.02
X142.038Y-107.02
X142.038Y-111.52
X142.038Y-117.52
X142.038Y-122.02
X148.538Y-96.52
X148.538Y-101.02
X148.538Y-107.02
X148.538Y-111.52
X148.538Y-117.52
X148.538Y-122.02
X152.788Y-107.02
X152.788Y-111.52
X159.288Y-107.02
X159.288Y-111.52
T4
X134.092Y-85.011
X156.444Y-85.011
T5
X122.682Y-109.982
X145.288Y-79.502
X168.148Y-109.982
M30
